<svg width="39" height="38" viewBox="0 0 39 38" fill="none" xmlns="http://www.w3.org/2000/svg">
<path fill-rule="evenodd" clip-rule="evenodd" d="M25.3544 24.3887L20.1122 21.2776V14.2309C20.1122 13.6087 19.6144 13.1109 18.9922 13.1109H18.8988C18.2766 13.1109 17.7788 13.6087 17.7788 14.2309V21.5732C17.7788 22.1176 18.0588 22.6309 18.541 22.9109L24.2188 26.3176C24.7477 26.6287 25.4321 26.4732 25.7433 25.9443C26.0699 25.3998 25.8988 24.6998 25.3544 24.3887ZM33.6144 8.45984L28.8233 4.47762C28.1699 3.93317 27.1899 4.01095 26.6299 4.67984C26.0855 5.33317 26.1788 6.31317 26.8322 6.87317L31.6077 10.8554C32.261 11.3998 33.241 11.3221 33.801 10.6532C34.361 9.99984 34.2677 9.01984 33.6144 8.45984ZM7.04548 10.8554L11.821 6.87317C12.4899 6.31317 12.5833 5.33317 12.0233 4.67984C11.4788 4.01095 10.4988 3.93317 9.84548 4.47762L5.05437 8.45984C4.40104 9.01984 4.30771 9.99984 4.86771 10.6532C5.41215 11.3221 6.39215 11.3998 7.04548 10.8554ZM19.3344 6.88873C11.6033 6.88873 5.33437 13.1576 5.33437 20.8887C5.33437 28.6198 11.6033 34.8887 19.3344 34.8887C27.0655 34.8887 33.3344 28.6198 33.3344 20.8887C33.3344 13.1576 27.0655 6.88873 19.3344 6.88873ZM19.3344 31.7776C13.3299 31.7776 8.44548 26.8932 8.44548 20.8887C8.44548 14.8843 13.3299 9.99984 19.3344 9.99984C25.3388 9.99984 30.2233 14.8843 30.2233 20.8887C30.2233 26.8932 25.3388 31.7776 19.3344 31.7776Z" fill="white"/>
</svg>
