<svg width="32" height="25" viewBox="0 0 32 25" fill="none" xmlns="http://www.w3.org/2000/svg">
<path d="M27.9725 2.40006L11.8839 20.0604C11.6653 20.3002 11.3689 20.4349 11.0599 20.4349C10.7509 20.4349 10.4545 20.3002 10.2359 20.0604L4.01234 13.223C3.90525 13.0988 3.77658 12.9994 3.63391 12.9307C3.49125 12.8621 3.33749 12.8254 3.18173 12.8231C3.02597 12.8208 2.87135 12.8527 2.72703 12.9171C2.5827 12.9814 2.45159 13.0769 2.34143 13.1979C2.23128 13.3188 2.14432 13.4628 2.0857 13.6212C2.02707 13.7797 1.99797 13.9494 2.00011 14.1205C2.00225 14.2915 2.03558 14.4603 2.09815 14.6169C2.16071 14.7736 2.25124 14.9149 2.36437 15.0324L8.58793 21.8823C9.24388 22.5982 10.1312 23 11.0561 23C11.981 23 12.8683 22.5982 13.5242 21.8823L29.6356 4.20945C29.7488 4.09187 29.8393 3.95059 29.9018 3.79395C29.9644 3.63732 29.9978 3.4685 29.9999 3.29748C30.002 3.12646 29.9729 2.9567 29.9143 2.79824C29.8557 2.63978 29.7687 2.49582 29.6586 2.37488C29.5484 2.25394 29.4173 2.15846 29.273 2.09409C29.1286 2.02973 28.974 1.99777 28.8183 2.00012C28.6625 2.00247 28.5087 2.03907 28.3661 2.10776C28.2234 2.17645 28.0947 2.27585 27.9877 2.40006H27.9725Z" fill="#6A97CF" stroke="#6A97CF" stroke-width="3"/>
</svg>
