<svg width="24" height="24" viewBox="0 0 24 24" fill="none" xmlns="http://www.w3.org/2000/svg">
<g id="Facebook">
<g id="Group">
<path id="Vector" d="M22 4.6474C22 9.56097 22 14.4745 22 19.3876C21.9868 19.4365 21.9702 19.4853 21.9614 19.5351C21.7822 20.5263 21.2476 21.2607 20.3428 21.6982C20.0454 21.8422 19.7075 21.9018 19.3882 22.0004C17.7119 22.0004 16.0352 22.0004 14.3589 22.0004C14.3589 19.6508 14.3589 17.3017 14.3589 14.9404C15.3599 14.9404 16.3335 14.9404 17.3218 14.9404C17.5166 13.7704 17.71 12.6098 17.9077 11.4247C16.7124 11.4247 15.54 11.4247 14.3687 11.4247C14.3687 10.6264 14.3687 9.84906 14.3687 9.05023C15.5498 9.05023 16.7217 9.05023 17.8921 9.05023C17.8921 7.87006 17.8921 6.71136 17.8921 5.54388C16.728 5.54388 15.5781 5.54144 14.4287 5.54437C12.3926 5.55023 10.8569 7.08685 10.8506 9.12396C10.8482 9.81927 10.8501 10.5146 10.8501 11.2099C10.8501 11.2792 10.8501 11.3481 10.8501 11.4384C10.0586 11.4384 9.28956 11.4384 8.52052 11.4384C8.52052 12.6142 8.52052 13.7685 8.52052 14.9438C9.29835 14.9438 10.0674 14.9438 10.8501 14.9438C10.8501 17.31 10.8501 19.6547 10.8501 21.9999C8.7837 21.9999 6.7173 21.9999 4.65089 21.9999C4.62062 21.9887 4.59132 21.9726 4.56007 21.9677C3.05665 21.7148 2.04151 20.5439 2.04005 19.0361C2.03614 14.3574 2.03517 9.67914 2.04542 5.00043C2.04591 4.67474 2.09962 4.33539 2.20216 4.02679C2.61378 2.79144 3.70851 2.03558 5.04347 2.0351C9.4546 2.03363 13.8662 2.03461 18.2774 2.03461C18.5762 2.03461 18.876 2.02191 19.1738 2.03998C20.3179 2.10834 21.1719 2.64838 21.688 3.67279C21.8394 3.97357 21.8984 4.32123 22 4.6474Z" fill="white"/>
</g>
</g>
</svg>
