<svg width="24" height="24" viewBox="0 0 24 24" fill="none" xmlns="http://www.w3.org/2000/svg">
<g id="Instagram">
<g id="Group">
<path id="Vector" d="M21.9996 6.84366C21.9996 10.2811 21.9996 13.7185 21.9996 17.156C21.9879 17.206 21.9723 17.2556 21.9648 17.3063C21.6453 19.5051 20.4387 20.9867 18.3497 21.7336C17.9688 21.8699 17.5548 21.9133 17.156 22C13.7185 22 10.2811 22 6.84366 22C6.79991 21.9891 6.75694 21.9734 6.7128 21.9672C4.50386 21.6535 3.01639 20.4453 2.26562 18.3489C2.12929 17.9684 2.08594 17.5544 2 17.156C2 13.7185 2 10.2811 2 6.84366C2.0125 6.78155 2.03047 6.71983 2.03711 6.65655C2.24609 4.63628 3.76364 2.80741 5.7218 2.23867C6.08781 2.13203 6.46944 2.07812 6.84366 2C10.2811 2 13.7185 2 17.156 2C17.206 2.01172 17.2556 2.02695 17.3063 2.03437C19.4836 2.34531 20.9555 3.53903 21.7156 5.59446C21.8625 5.99172 21.9078 6.42648 21.9996 6.84366ZM18.4841 12.0037C18.4841 11.0338 18.4852 10.0639 18.4837 9.094C18.4805 7.06592 16.938 5.51868 14.9134 5.51595C12.967 5.5136 11.0209 5.5136 9.07447 5.5179C8.84791 5.51829 8.61745 5.53352 8.39558 5.57688C6.67842 5.91477 5.51751 7.33193 5.51556 9.08541C5.5136 11.0186 5.51438 12.9521 5.51517 14.8853C5.51634 16.9384 7.05537 18.4817 9.10494 18.4833C11.0319 18.4848 12.9584 18.4848 14.8853 18.4833C16.9392 18.4817 18.4809 16.9431 18.4833 14.8935C18.4848 13.9306 18.4841 12.967 18.4841 12.0037Z" fill="white"/>
<path id="Vector_2" d="M17.3122 11.9991C17.3122 12.9686 17.3134 13.9385 17.3118 14.908C17.3098 16.2869 16.2856 17.3107 14.9044 17.3119C12.965 17.3134 11.026 17.3138 9.08657 17.3119C7.71824 17.3103 6.68896 16.2834 6.68779 14.9189C6.68622 12.9733 6.68622 11.0272 6.68779 9.08155C6.68896 7.71634 7.71784 6.68902 9.0854 6.68785C11.0311 6.68628 12.9771 6.68589 14.9228 6.68785C16.279 6.68941 17.3083 7.71673 17.3118 9.07061C17.3141 10.0468 17.3122 11.0229 17.3122 11.9991ZM9.07016 11.9967C9.06899 13.6108 10.3846 14.9287 11.9967 14.9291C13.6111 14.9299 14.9279 13.6154 14.929 12.0022C14.9302 10.3878 13.6158 9.071 12.0021 9.07022C10.3877 9.06944 9.07133 10.3835 9.07016 11.9967ZM15.9442 8.64796C15.9485 8.33156 15.688 8.06204 15.3716 8.05501C15.056 8.04798 14.7833 8.30695 14.774 8.62296C14.7642 8.94679 15.0322 9.22412 15.3564 9.22569C15.6724 9.22725 15.9399 8.96436 15.9442 8.64796Z" fill="white"/>
<path id="Vector_3" d="M11.9947 10.2432C12.9677 10.2408 13.7591 11.0318 13.7572 12.0049C13.7552 12.9689 12.9689 13.7552 12.0053 13.7576C11.0334 13.7599 10.2408 12.9677 10.2428 11.9959C10.2444 11.0322 11.0311 10.2451 11.9947 10.2432Z" fill="white"/>
</g>
</g>
</svg>
