<svg width="24" height="24" viewBox="0 0 24 24" fill="none" xmlns="http://www.w3.org/2000/svg">
<g id="Linkedin">
<g id="Group">
<path id="Vector" d="M2.00067 19.5781C2.00067 14.526 2.00067 9.47396 2.00067 4.42188C2.01369 4.37292 2.02932 4.32448 2.03869 4.275C2.21213 3.35625 2.71265 2.6776 3.55432 2.27396C3.82567 2.14427 4.13244 2.08906 4.42255 2C9.47463 2 14.5267 2 19.5788 2C19.6158 2.01146 19.6517 2.02656 19.6892 2.03385C20.8246 2.24583 21.559 2.90833 21.9017 4.00729C21.9439 4.14271 21.9679 4.28333 22.0007 4.42188C22.0007 9.47396 22.0007 14.526 22.0007 19.5781C21.9876 19.6276 21.972 19.6771 21.9621 19.7271C21.7382 20.8234 21.0975 21.5474 20.0304 21.8885C19.883 21.9354 19.7293 21.963 19.5788 22C14.5267 22 9.47463 22 4.42255 22C4.38557 21.9885 4.34963 21.9729 4.31213 21.9656C3.17619 21.7531 2.44182 21.0901 2.09807 19.9906C2.05588 19.8563 2.03296 19.7161 2.00067 19.5781ZM12.6538 10.8552C12.6538 10.6698 12.6559 10.5078 12.6533 10.3453C12.6486 10.0182 12.5132 9.87969 12.1903 9.87812C11.6173 9.87552 11.0449 9.87604 10.472 9.87812C10.1444 9.87917 10.009 10.0151 10.009 10.3411C10.0085 12.8208 10.0085 15.3 10.009 17.7797C10.009 18.112 10.1502 18.249 10.4887 18.2495C11.0225 18.2505 11.5559 18.25 12.0897 18.25C12.5309 18.25 12.6449 18.1375 12.6449 17.6979C12.6455 16.4484 12.6434 15.199 12.646 13.9495C12.647 13.4792 12.747 13.0318 13.0012 12.6302C13.3199 12.1266 13.7944 11.9641 14.3647 12.0396C14.8866 12.1083 15.2324 12.4161 15.3517 12.9115C15.4496 13.3172 15.4934 13.7443 15.4996 14.1625C15.5179 15.3661 15.5033 16.5703 15.5043 17.774C15.5048 18.1125 15.6413 18.2464 15.9798 18.2469C16.5658 18.2484 17.1512 18.2484 17.7371 18.2469C18.0694 18.2458 18.2106 18.1036 18.2106 17.7688C18.21 16.3958 18.2262 15.0219 18.1975 13.6495C18.1861 13.0807 18.1189 12.5057 18.0043 11.949C17.846 11.1792 17.4699 10.5219 16.7538 10.124C15.9877 9.69844 15.1606 9.68333 14.3236 9.82031C13.6517 9.93021 13.11 10.2667 12.7121 10.8255C12.7069 10.8328 12.6929 10.8354 12.6538 10.8552ZM6.17932 14.0505C6.17932 15.287 6.17828 16.5234 6.17984 17.7594C6.18036 18.0911 6.33869 18.2479 6.67203 18.249C7.21838 18.2505 7.76525 18.2505 8.31161 18.249C8.65744 18.2479 8.81838 18.0964 8.8189 17.7521C8.82098 15.2922 8.82098 12.8328 8.8189 10.3729C8.81838 10.0255 8.66473 9.87604 8.31421 9.87396C7.77411 9.87083 7.234 9.87083 6.6939 9.87396C6.32255 9.87604 6.1788 10.0245 6.1788 10.3995C6.1788 11.6167 6.17932 12.8339 6.17932 14.0505ZM9.19859 7.46458C9.20848 6.5349 8.45848 5.76354 7.53296 5.75052C6.58296 5.73698 5.80275 6.49167 5.79286 7.43385C5.78296 8.37292 6.53817 9.14635 7.47255 9.15469C8.43036 9.16302 9.18817 8.42083 9.19859 7.46458Z" fill="white"/>
</g>
</g>
</svg>
