<svg width="66" height="34" viewBox="0 0 66 34" fill="none" xmlns="http://www.w3.org/2000/svg">
<path d="M16.915 3.77076L16.9075 3.77132L16.1876 1.03152L16.1785 0.831728C16.1786 0.831728 16.1787 0.83172 16.1787 0.83172C16.4105 0.821264 16.6451 0.817232 16.7808 0.820171C16.8296 0.816473 16.9789 0.807901 17.2109 0.807901C18.3479 0.807901 21.5415 1.01372 25.0139 3.0684C28.4913 5.12603 32.2294 9.027 34.4651 16.3845C36.6213 23.4826 40.188 26.8495 43.2589 28.4444C46.3363 30.0426 48.9412 29.8745 49.1876 29.8577L49.1876 29.8572H49.2013C49.5318 29.8572 49.8613 29.8443 50.1861 29.8204C56.9467 29.3165 62.2439 23.6035 62.2439 16.814C62.2439 9.62228 56.393 3.77132 49.2013 3.77132C44.7429 3.77132 40.6403 6.01292 38.2235 9.76918L38.1152 9.93737L37.947 9.82915L35.7979 8.44633L35.6298 8.33813L35.7379 8.16994C38.7 3.56513 43.7329 0.8153 49.2013 0.8153C58.0228 0.8153 65.1998 7.99233 65.1998 16.8139C65.1998 25.1427 58.7019 32.1501 50.4054 32.7676C50.0141 32.797 49.6216 32.8111 49.3212 32.8082C49.1068 32.8236 45.9954 33.0031 42.3015 31.2098C38.5133 29.3708 34.1347 25.4673 31.6362 17.2433L31.8275 17.1852L31.6362 17.2433C29.48 10.1458 25.9138 6.77811 22.8433 5.18278C19.7661 3.58403 17.1612 3.75224 16.915 3.77076Z" fill="white" stroke="white" stroke-width="0.4"/>
</svg>
