<svg width="582" height="194" viewBox="0 0 582 194" fill="none" xmlns="http://www.w3.org/2000/svg">
<path d="M173.718 129.69H204.976V103.779H211.657L229.287 129.69H264.956L243.177 98.8541C254.535 93.5447 261.614 84.345 261.614 71.1325V70.8705C261.614 61.5449 258.677 54.8059 253.068 49.3637C246.519 43.0162 235.968 39 219.4 39H173.715V46.8553C181.243 52.2295 185.6 60.3638 185.6 71.2585V71.5205C185.6 82.5207 181.25 90.941 173.715 96.5908L173.718 129.69ZM204.976 82.1429V64.3936H218.6C225.816 64.3936 230.492 67.2423 230.492 73.0759V73.3312C230.492 78.9028 225.952 82.1429 218.468 82.1429H204.976Z" fill="#6490C5"/>
<path d="M271.965 129.69H303.546V47.7641V39H271.965V47.7266V129.69Z" fill="#6490C5"/>
<path d="M408.82 129.69H489.528V104.814H439.653V94.9673H485.505V73.0759H439.653V63.8729H488.857V39H408.82V56.9229C414.446 64.0941 417.261 73.144 417.261 83.5656V83.8276C417.261 94.1403 414.443 103.306 408.82 110.681V129.69Z" fill="#6490C5"/>
<path d="M93 129.69H124.38V105.072H134.57C159.916 105.072 177.22 93.4119 177.22 71.5171V71.2585C177.22 49.7551 160.185 39 135.241 39H93V129.69ZM124.38 83.4362V63.2262H132.961C141.275 63.2262 146.238 66.5957 146.238 73.2019V73.4605C146.238 79.9408 140.874 83.4362 132.828 83.4362H124.38Z" fill="#6490C5"/>
<path d="M317.59 129.69H352.217C389.914 129.69 408.828 110.644 408.828 83.8276V83.5656C408.828 56.7493 390.313 39 353.286 39H317.59V129.69ZM353.953 65.4317C368.203 65.4317 377.393 71.1325 377.393 84.2156V84.4777C377.393 97.5608 368.207 103.258 353.953 103.258H348.756V65.4317H353.953Z" fill="#6490C5"/>
<path d="M192.888 149.182H189.884C189.862 148.933 189.805 148.708 189.713 148.505C189.624 148.303 189.5 148.129 189.34 147.983C189.184 147.834 188.994 147.721 188.77 147.642C188.547 147.561 188.293 147.52 188.009 147.52C187.511 147.52 187.091 147.641 186.746 147.882C186.405 148.124 186.146 148.47 185.968 148.921C185.794 149.372 185.707 149.913 185.707 150.545C185.707 151.213 185.796 151.772 185.974 152.223C186.155 152.671 186.416 153.008 186.757 153.235C187.098 153.459 187.508 153.571 187.987 153.571C188.261 153.571 188.506 153.537 188.722 153.47C188.939 153.399 189.127 153.298 189.287 153.166C189.447 153.035 189.576 152.877 189.676 152.692C189.779 152.504 189.848 152.293 189.884 152.058L192.888 152.08C192.852 152.541 192.723 153.012 192.499 153.491C192.275 153.967 191.957 154.407 191.545 154.812C191.137 155.213 190.631 155.537 190.027 155.782C189.424 156.027 188.722 156.149 187.923 156.149C186.922 156.149 186.023 155.934 185.228 155.505C184.436 155.075 183.809 154.443 183.348 153.608C182.89 152.774 182.661 151.753 182.661 150.545C182.661 149.331 182.895 148.308 183.364 147.477C183.832 146.643 184.464 146.012 185.26 145.586C186.055 145.157 186.943 144.942 187.923 144.942C188.612 144.942 189.246 145.036 189.825 145.224C190.404 145.412 190.912 145.687 191.348 146.05C191.785 146.408 192.137 146.85 192.403 147.376C192.669 147.902 192.831 148.504 192.888 149.182ZM197.214 145.091V156H194.274V145.091H197.214ZM198.713 156V147.818H201.653V156H198.713ZM200.183 146.966C199.785 146.966 199.444 146.835 199.16 146.572C198.876 146.309 198.734 145.993 198.734 145.624C198.734 145.254 198.876 144.938 199.16 144.675C199.444 144.413 199.785 144.281 200.183 144.281C200.584 144.281 200.925 144.413 201.205 144.675C201.49 144.938 201.632 145.254 201.632 145.624C201.632 145.993 201.49 146.309 201.205 146.572C200.925 146.835 200.584 146.966 200.183 146.966ZM207.093 156.149C206.205 156.149 205.445 155.973 204.813 155.622C204.181 155.267 203.696 154.773 203.359 154.141C203.021 153.505 202.853 152.768 202.853 151.93C202.853 151.092 203.021 150.357 203.359 149.725C203.696 149.089 204.181 148.596 204.813 148.244C205.445 147.889 206.205 147.712 207.093 147.712C207.895 147.712 208.59 147.857 209.176 148.148C209.765 148.436 210.221 148.844 210.544 149.374C210.868 149.899 211.031 150.517 211.035 151.227H208.307C208.268 150.798 208.144 150.471 207.934 150.247C207.728 150.02 207.462 149.906 207.135 149.906C206.88 149.906 206.656 149.981 206.464 150.13C206.272 150.276 206.123 150.498 206.017 150.796C205.91 151.091 205.857 151.462 205.857 151.909C205.857 152.357 205.91 152.729 206.017 153.028C206.123 153.322 206.272 153.544 206.464 153.694C206.656 153.839 206.88 153.912 207.135 153.912C207.352 153.912 207.544 153.862 207.711 153.763C207.878 153.66 208.013 153.511 208.116 153.315C208.222 153.116 208.286 152.875 208.307 152.591H211.035C211.024 153.312 210.859 153.94 210.539 154.477C210.22 155.009 209.767 155.421 209.181 155.712C208.598 156.004 207.902 156.149 207.093 156.149ZM214.89 154.061L214.911 150.567H215.295L217.276 147.818H220.579L217.255 152.101H216.424L214.89 154.061ZM212.248 156V145.091H215.188V156H212.248ZM217.297 156L215.422 152.761L217.34 150.673L220.664 156H217.297ZM224.29 156V145.091H227.252V149.352H231.172V145.091H234.134V156H231.172V151.739H227.252V156H224.29ZM239.503 156.149C238.63 156.149 237.877 155.982 237.245 155.648C236.616 155.311 236.131 154.828 235.79 154.2C235.453 153.567 235.284 152.811 235.284 151.93C235.284 151.085 235.455 150.347 235.796 149.714C236.137 149.082 236.618 148.591 237.239 148.239C237.861 147.887 238.594 147.712 239.439 147.712C240.057 147.712 240.616 147.808 241.117 147.999C241.618 148.191 242.046 148.47 242.401 148.836C242.756 149.198 243.029 149.638 243.221 150.157C243.413 150.675 243.509 151.259 243.509 151.909V152.591H236.201V150.972H240.803C240.799 150.737 240.739 150.531 240.622 150.354C240.508 150.173 240.354 150.032 240.158 149.933C239.967 149.83 239.748 149.778 239.503 149.778C239.265 149.778 239.047 149.83 238.848 149.933C238.649 150.032 238.489 150.171 238.369 150.348C238.251 150.526 238.189 150.734 238.182 150.972V152.719C238.182 152.982 238.237 153.216 238.347 153.422C238.457 153.628 238.615 153.789 238.821 153.907C239.027 154.024 239.276 154.082 239.567 154.082C239.769 154.082 239.954 154.054 240.121 153.997C240.291 153.94 240.437 153.859 240.558 153.752C240.679 153.642 240.767 153.511 240.824 153.358H243.509C243.416 153.926 243.198 154.42 242.854 154.839C242.509 155.254 242.053 155.577 241.485 155.808C240.92 156.036 240.259 156.149 239.503 156.149ZM244.709 156V147.818H247.564V149.374H247.649C247.798 148.798 248.034 148.377 248.357 148.111C248.684 147.845 249.066 147.712 249.503 147.712C249.631 147.712 249.757 147.722 249.881 147.744C250.009 147.761 250.131 147.788 250.248 147.824V150.332C250.103 150.283 249.923 150.245 249.71 150.221C249.497 150.196 249.314 150.183 249.162 150.183C248.874 150.183 248.615 150.249 248.384 150.38C248.157 150.508 247.977 150.689 247.846 150.924C247.715 151.154 247.649 151.426 247.649 151.739V156H244.709ZM254.664 156.149C253.791 156.149 253.038 155.982 252.406 155.648C251.777 155.311 251.292 154.828 250.952 154.2C250.614 153.567 250.445 152.811 250.445 151.93C250.445 151.085 250.616 150.347 250.957 149.714C251.298 149.082 251.779 148.591 252.4 148.239C253.022 147.887 253.755 147.712 254.6 147.712C255.218 147.712 255.778 147.808 256.278 147.999C256.779 148.191 257.207 148.47 257.562 148.836C257.917 149.198 258.191 149.638 258.382 150.157C258.574 150.675 258.67 151.259 258.67 151.909V152.591H251.362V150.972H255.964C255.96 150.737 255.9 150.531 255.783 150.354C255.669 150.173 255.515 150.032 255.319 149.933C255.128 149.83 254.909 149.778 254.664 149.778C254.426 149.778 254.208 149.83 254.009 149.933C253.81 150.032 253.65 150.171 253.53 150.348C253.412 150.526 253.35 150.734 253.343 150.972V152.719C253.343 152.982 253.398 153.216 253.508 153.422C253.618 153.628 253.776 153.789 253.982 153.907C254.188 154.024 254.437 154.082 254.728 154.082C254.931 154.082 255.115 154.054 255.282 153.997C255.453 153.94 255.598 153.859 255.719 153.752C255.84 153.642 255.928 153.511 255.985 153.358H258.67C258.578 153.926 258.359 154.42 258.015 154.839C257.67 155.254 257.214 155.577 256.646 155.808C256.081 156.036 255.421 156.149 254.664 156.149ZM262.517 147.477V145.091H271.999V147.477H268.717V156H265.798V147.477H262.517ZM275.911 156.149C275.023 156.149 274.263 155.973 273.631 155.622C272.999 155.267 272.514 154.773 272.177 154.141C271.84 153.505 271.671 152.768 271.671 151.93C271.671 151.092 271.84 150.357 272.177 149.725C272.514 149.089 272.999 148.596 273.631 148.244C274.263 147.889 275.023 147.712 275.911 147.712C276.799 147.712 277.559 147.889 278.191 148.244C278.823 148.596 279.308 149.089 279.645 149.725C279.983 150.357 280.151 151.092 280.151 151.93C280.151 152.768 279.983 153.505 279.645 154.141C279.308 154.773 278.823 155.267 278.191 155.622C277.559 155.973 276.799 156.149 275.911 156.149ZM275.932 153.976C276.181 153.976 276.396 153.892 276.577 153.725C276.758 153.559 276.898 153.321 276.998 153.012C277.097 152.703 277.147 152.335 277.147 151.909C277.147 151.479 277.097 151.112 276.998 150.806C276.898 150.498 276.758 150.26 276.577 150.093C276.396 149.926 276.181 149.842 275.932 149.842C275.67 149.842 275.444 149.926 275.256 150.093C275.068 150.26 274.924 150.498 274.824 150.806C274.725 151.112 274.675 151.479 274.675 151.909C274.675 152.335 274.725 152.703 274.824 153.012C274.924 153.321 275.068 153.559 275.256 153.725C275.444 153.892 275.67 153.976 275.932 153.976ZM284.29 156V145.091H288.999C289.809 145.091 290.517 145.251 291.124 145.57C291.731 145.89 292.204 146.339 292.541 146.918C292.878 147.497 293.047 148.173 293.047 148.947C293.047 149.729 292.873 150.405 292.525 150.977C292.181 151.549 291.696 151.989 291.071 152.298C290.449 152.607 289.723 152.761 288.892 152.761H286.08V150.46H288.296C288.644 150.46 288.94 150.4 289.185 150.279C289.434 150.155 289.624 149.979 289.755 149.752C289.89 149.525 289.958 149.256 289.958 148.947C289.958 148.635 289.89 148.369 289.755 148.148C289.624 147.925 289.434 147.754 289.185 147.637C288.94 147.516 288.644 147.456 288.296 147.456H287.252V156H284.29ZM297.117 145.091V156H294.176V145.091H297.117ZM300.895 156.128C300.373 156.128 299.911 156.043 299.51 155.872C299.112 155.698 298.8 155.435 298.572 155.084C298.345 154.732 298.231 154.285 298.231 153.741C298.231 153.294 298.308 152.912 298.46 152.596C298.613 152.277 298.826 152.016 299.1 151.813C299.373 151.611 299.691 151.456 300.053 151.35C300.419 151.243 300.813 151.174 301.236 151.142C301.694 151.107 302.061 151.064 302.338 151.014C302.619 150.961 302.821 150.888 302.945 150.796C303.07 150.7 303.132 150.574 303.132 150.418V150.396C303.132 150.183 303.05 150.02 302.887 149.906C302.724 149.793 302.514 149.736 302.258 149.736C301.978 149.736 301.749 149.798 301.571 149.922C301.397 150.043 301.292 150.229 301.257 150.482H298.551C298.586 149.984 298.744 149.526 299.025 149.107C299.309 148.685 299.723 148.347 300.266 148.095C300.809 147.839 301.488 147.712 302.301 147.712C302.887 147.712 303.412 147.781 303.878 147.919C304.343 148.054 304.739 148.244 305.066 148.489C305.392 148.731 305.641 149.015 305.811 149.342C305.985 149.665 306.072 150.016 306.072 150.396V156H303.324V154.849H303.26C303.096 155.155 302.898 155.402 302.663 155.59C302.432 155.778 302.168 155.915 301.869 156C301.575 156.085 301.25 156.128 300.895 156.128ZM301.854 154.274C302.077 154.274 302.287 154.228 302.482 154.136C302.681 154.043 302.843 153.91 302.967 153.736C303.091 153.562 303.153 153.351 303.153 153.102V152.42C303.075 152.452 302.992 152.483 302.903 152.511C302.818 152.539 302.725 152.566 302.626 152.591C302.53 152.616 302.427 152.639 302.317 152.66C302.21 152.681 302.099 152.701 301.981 152.719C301.754 152.754 301.568 152.813 301.422 152.895C301.28 152.973 301.173 153.07 301.102 153.188C301.035 153.301 301.001 153.429 301.001 153.571C301.001 153.798 301.081 153.972 301.241 154.093C301.401 154.214 301.605 154.274 301.854 154.274ZM308.974 159.068C308.637 159.068 308.315 159.042 308.01 158.988C307.704 158.939 307.436 158.869 307.206 158.781L307.845 156.692C308.086 156.778 308.306 156.833 308.505 156.858C308.708 156.882 308.88 156.868 309.022 156.815C309.168 156.762 309.272 156.661 309.336 156.511L309.4 156.362L306.524 147.818H309.592L310.913 153.486H310.998L312.34 147.818H315.43L312.447 156.682C312.298 157.133 312.081 157.538 311.797 157.896C311.517 158.259 311.147 158.544 310.689 158.754C310.231 158.963 309.659 159.068 308.974 159.068ZM322.195 145.091L324.432 152.783H324.517L326.755 145.091H330.1L326.499 156H322.451L318.85 145.091H322.195ZM331.193 156V147.818H334.133V156H331.193ZM332.663 146.966C332.265 146.966 331.925 146.835 331.64 146.572C331.356 146.309 331.214 145.993 331.214 145.624C331.214 145.254 331.356 144.938 331.64 144.675C331.925 144.413 332.265 144.281 332.663 144.281C333.064 144.281 333.405 144.413 333.686 144.675C333.97 144.938 334.112 145.254 334.112 145.624C334.112 145.993 333.97 146.309 333.686 146.572C333.405 146.835 333.064 146.966 332.663 146.966ZM338.593 156.107C338.011 156.107 337.475 155.954 336.984 155.648C336.498 155.343 336.107 154.88 335.813 154.258C335.521 153.637 335.376 152.854 335.376 151.909C335.376 150.922 335.528 150.119 335.834 149.501C336.143 148.884 336.541 148.431 337.027 148.143C337.517 147.855 338.032 147.712 338.572 147.712C338.977 147.712 339.332 147.783 339.637 147.925C339.943 148.063 340.198 148.25 340.404 148.484C340.61 148.715 340.766 148.969 340.873 149.246H340.916V145.091H343.856V156H340.937V154.658H340.873C340.759 154.935 340.596 155.183 340.383 155.403C340.173 155.62 339.918 155.792 339.616 155.92C339.318 156.044 338.977 156.107 338.593 156.107ZM339.68 153.848C339.95 153.848 340.18 153.77 340.372 153.614C340.568 153.454 340.717 153.23 340.82 152.942C340.926 152.651 340.979 152.307 340.979 151.909C340.979 151.504 340.926 151.158 340.82 150.87C340.717 150.579 340.568 150.357 340.372 150.205C340.18 150.048 339.95 149.97 339.68 149.97C339.41 149.97 339.179 150.048 338.987 150.205C338.799 150.357 338.653 150.579 338.551 150.87C338.451 151.158 338.401 151.504 338.401 151.909C338.401 152.314 338.451 152.662 338.551 152.953C338.653 153.241 338.799 153.463 338.987 153.619C339.179 153.772 339.41 153.848 339.68 153.848ZM349.22 156.149C348.346 156.149 347.593 155.982 346.961 155.648C346.333 155.311 345.848 154.828 345.507 154.2C345.17 153.567 345.001 152.811 345.001 151.93C345.001 151.085 345.172 150.347 345.513 149.714C345.853 149.082 346.335 148.591 346.956 148.239C347.578 147.887 348.311 147.712 349.156 147.712C349.774 147.712 350.333 147.808 350.834 147.999C351.335 148.191 351.763 148.47 352.118 148.836C352.473 149.198 352.746 149.638 352.938 150.157C353.13 150.675 353.226 151.259 353.226 151.909V152.591H345.917V150.972H350.52C350.516 150.737 350.456 150.531 350.339 150.354C350.225 150.173 350.07 150.032 349.875 149.933C349.683 149.83 349.465 149.778 349.22 149.778C348.982 149.778 348.764 149.83 348.565 149.933C348.366 150.032 348.206 150.171 348.085 150.348C347.968 150.526 347.906 150.734 347.899 150.972V152.719C347.899 152.982 347.954 153.216 348.064 153.422C348.174 153.628 348.332 153.789 348.538 153.907C348.744 154.024 348.993 154.082 349.284 154.082C349.486 154.082 349.671 154.054 349.838 153.997C350.008 153.94 350.154 153.859 350.275 153.752C350.395 153.642 350.484 153.511 350.541 153.358H353.226C353.133 153.926 352.915 154.42 352.57 154.839C352.226 155.254 351.77 155.577 351.201 155.808C350.637 156.036 349.976 156.149 349.22 156.149ZM358.367 156.149C357.479 156.149 356.719 155.973 356.087 155.622C355.455 155.267 354.971 154.773 354.633 154.141C354.296 153.505 354.127 152.768 354.127 151.93C354.127 151.092 354.296 150.357 354.633 149.725C354.971 149.089 355.455 148.596 356.087 148.244C356.719 147.889 357.479 147.712 358.367 147.712C359.255 147.712 360.015 147.889 360.647 148.244C361.279 148.596 361.764 149.089 362.101 149.725C362.439 150.357 362.607 151.092 362.607 151.93C362.607 152.768 362.439 153.505 362.101 154.141C361.764 154.773 361.279 155.267 360.647 155.622C360.015 155.973 359.255 156.149 358.367 156.149ZM358.388 153.976C358.637 153.976 358.852 153.892 359.033 153.725C359.214 153.559 359.354 153.321 359.454 153.012C359.553 152.703 359.603 152.335 359.603 151.909C359.603 151.479 359.553 151.112 359.454 150.806C359.354 150.498 359.214 150.26 359.033 150.093C358.852 149.926 358.637 149.842 358.388 149.842C358.126 149.842 357.9 149.926 357.712 150.093C357.524 150.26 357.38 150.498 357.281 150.806C357.181 151.112 357.131 151.479 357.131 151.909C357.131 152.335 357.181 152.703 357.281 153.012C357.38 153.321 357.524 153.559 357.712 153.725C357.9 153.892 358.126 153.976 358.388 153.976ZM376.931 149.182H373.926C373.905 148.933 373.848 148.708 373.756 148.505C373.667 148.303 373.543 148.129 373.383 147.983C373.227 147.834 373.037 147.721 372.813 147.642C372.589 147.561 372.336 147.52 372.051 147.52C371.554 147.52 371.134 147.641 370.789 147.882C370.448 148.124 370.189 148.47 370.011 148.921C369.837 149.372 369.75 149.913 369.75 150.545C369.75 151.213 369.839 151.772 370.017 152.223C370.198 152.671 370.459 153.008 370.8 153.235C371.141 153.459 371.551 153.571 372.03 153.571C372.304 153.571 372.549 153.537 372.765 153.47C372.982 153.399 373.17 153.298 373.33 153.166C373.49 153.035 373.619 152.877 373.719 152.692C373.822 152.504 373.891 152.293 373.926 152.058L376.931 152.08C376.895 152.541 376.766 153.012 376.542 153.491C376.318 153.967 376 154.407 375.588 154.812C375.18 155.213 374.674 155.537 374.07 155.782C373.467 156.027 372.765 156.149 371.966 156.149C370.965 156.149 370.066 155.934 369.271 155.505C368.479 155.075 367.852 154.443 367.391 153.608C366.933 152.774 366.703 151.753 366.703 150.545C366.703 149.331 366.938 148.308 367.407 147.477C367.875 146.643 368.507 146.012 369.303 145.586C370.098 145.157 370.986 144.942 371.966 144.942C372.655 144.942 373.289 145.036 373.868 145.224C374.447 145.412 374.955 145.687 375.391 146.05C375.828 146.408 376.18 146.85 376.446 147.376C376.712 147.902 376.874 148.504 376.931 149.182ZM382.259 156.149C381.371 156.149 380.611 155.973 379.979 155.622C379.347 155.267 378.862 154.773 378.525 154.141C378.187 153.505 378.019 152.768 378.019 151.93C378.019 151.092 378.187 150.357 378.525 149.725C378.862 149.089 379.347 148.596 379.979 148.244C380.611 147.889 381.371 147.712 382.259 147.712C383.147 147.712 383.907 147.889 384.539 148.244C385.171 148.596 385.655 149.089 385.993 149.725C386.33 150.357 386.499 151.092 386.499 151.93C386.499 152.768 386.33 153.505 385.993 154.141C385.655 154.773 385.171 155.267 384.539 155.622C383.907 155.973 383.147 156.149 382.259 156.149ZM382.28 153.976C382.529 153.976 382.744 153.892 382.925 153.725C383.106 153.559 383.246 153.321 383.345 153.012C383.445 152.703 383.495 152.335 383.495 151.909C383.495 151.479 383.445 151.112 383.345 150.806C383.246 150.498 383.106 150.26 382.925 150.093C382.744 149.926 382.529 149.842 382.28 149.842C382.017 149.842 381.792 149.926 381.604 150.093C381.415 150.26 381.272 150.498 381.172 150.806C381.073 151.112 381.023 151.479 381.023 151.909C381.023 152.335 381.073 152.703 381.172 153.012C381.272 153.321 381.415 153.559 381.604 153.725C381.792 153.892 382.017 153.976 382.28 153.976ZM390.632 151.398V156H387.692V147.818H390.483V149.374H390.568C390.746 148.855 391.059 148.449 391.506 148.154C391.957 147.859 392.483 147.712 393.083 147.712C393.661 147.712 394.164 147.845 394.59 148.111C395.02 148.374 395.352 148.736 395.586 149.198C395.824 149.659 395.941 150.187 395.938 150.78V156H392.997V151.398C393.001 150.993 392.898 150.675 392.688 150.444C392.483 150.213 392.195 150.098 391.826 150.098C391.584 150.098 391.373 150.151 391.192 150.258C391.014 150.361 390.877 150.51 390.782 150.705C390.686 150.897 390.636 151.128 390.632 151.398ZM402.269 147.818V149.949H396.878V147.818H402.269ZM397.922 145.858H400.862V153.369C400.862 153.482 400.882 153.578 400.921 153.656C400.96 153.731 401.02 153.788 401.102 153.827C401.184 153.862 401.288 153.88 401.416 153.88C401.505 153.88 401.608 153.869 401.725 153.848C401.846 153.827 401.935 153.809 401.992 153.795L402.418 155.862C402.286 155.901 402.098 155.949 401.853 156.005C401.612 156.062 401.324 156.099 400.99 156.117C400.315 156.153 399.749 156.083 399.291 155.909C398.833 155.732 398.488 155.453 398.258 155.073C398.027 154.693 397.915 154.217 397.922 153.646V145.858ZM407.301 156.149C406.427 156.149 405.675 155.982 405.042 155.648C404.414 155.311 403.929 154.828 403.588 154.2C403.251 153.567 403.082 152.811 403.082 151.93C403.082 151.085 403.253 150.347 403.594 149.714C403.934 149.082 404.416 148.591 405.037 148.239C405.659 147.887 406.392 147.712 407.237 147.712C407.855 147.712 408.414 147.808 408.915 147.999C409.416 148.191 409.844 148.47 410.199 148.836C410.554 149.198 410.827 149.638 411.019 150.157C411.211 150.675 411.307 151.259 411.307 151.909V152.591H403.998V150.972H408.601C408.597 150.737 408.537 150.531 408.42 150.354C408.306 150.173 408.151 150.032 407.956 149.933C407.764 149.83 407.546 149.778 407.301 149.778C407.063 149.778 406.845 149.83 406.646 149.933C406.447 150.032 406.287 150.171 406.166 150.348C406.049 150.526 405.987 150.734 405.98 150.972V152.719C405.98 152.982 406.035 153.216 406.145 153.422C406.255 153.628 406.413 153.789 406.619 153.907C406.825 154.024 407.074 154.082 407.365 154.082C407.567 154.082 407.752 154.054 407.919 153.997C408.089 153.94 408.235 153.859 408.356 153.752C408.476 153.642 408.565 153.511 408.622 153.358H411.307C411.214 153.926 410.996 154.42 410.651 154.839C410.307 155.254 409.851 155.577 409.282 155.808C408.718 156.036 408.057 156.149 407.301 156.149ZM415.447 151.398V156H412.506V147.818H415.298V149.374H415.383C415.56 148.855 415.873 148.449 416.32 148.154C416.771 147.859 417.297 147.712 417.897 147.712C418.476 147.712 418.978 147.845 419.405 148.111C419.834 148.374 420.166 148.736 420.401 149.198C420.639 149.659 420.756 150.187 420.752 150.78V156H417.812V151.398C417.815 150.993 417.712 150.675 417.503 150.444C417.297 150.213 417.009 150.098 416.64 150.098C416.399 150.098 416.187 150.151 416.006 150.258C415.829 150.361 415.692 150.51 415.596 150.705C415.5 150.897 415.45 151.128 415.447 151.398ZM427.083 147.818V149.949H421.692V147.818H427.083ZM422.736 145.858H425.677V153.369C425.677 153.482 425.696 153.578 425.735 153.656C425.774 153.731 425.835 153.788 425.916 153.827C425.998 153.862 426.103 153.88 426.231 153.88C426.32 153.88 426.422 153.869 426.54 153.848C426.66 153.827 426.749 153.809 426.806 153.795L427.232 155.862C427.101 155.901 426.913 155.949 426.668 156.005C426.426 156.062 426.138 156.099 425.805 156.117C425.13 156.153 424.563 156.083 424.105 155.909C423.647 155.732 423.303 155.453 423.072 155.073C422.841 154.693 422.729 154.217 422.736 153.646V145.858Z" fill="#6490C5"/>
<path d="M158.426 163C158.023 162.999 157.627 162.894 157.277 162.695C156.49 162.252 156 161.391 156 160.457V141.544C156 140.606 156.49 139.748 157.277 139.305C157.635 139.1 158.042 138.995 158.455 139C158.868 139.005 159.272 139.121 159.625 139.334L175.892 149.01C176.231 149.221 176.511 149.514 176.705 149.862C176.898 150.21 177 150.601 177 150.999C177 151.396 176.898 151.787 176.705 152.135C176.511 152.483 176.231 152.777 175.892 152.988L159.622 162.666C159.261 162.883 158.848 162.998 158.426 163Z" fill="#6490C5"/>
</svg>
